PathFileType  4	(X/Y/Z) C:\Users\antoi\Documents\MyRepositories\mobilecap\ResultsAnalysis
DataRate	CameraRate	NumFrames	NumMarkers	Units	OrigDataRate	OrigDataStartFrame	OrigNumFrames
100.0	100.0	5	51	mm	100.0	132	150
Frame#	Time	r_knee			r_shank_antsup			r_ankle			r_calc			r_5meta			r_toe			L_knee			L_shank_antsup			L_ankle			L_calc			L_5meta			L_toe			r_sh2			r_sh3			r_sh4			L_sh2			L_sh3			r_thigh1			r_thigh2			r_thigh3			r_thigh4			r_thigh5			L_thigh1			L_thigh2			L_thigh3			L_thigh4			r.ASIS			r.PSIS			L.ASIS			L.PSIS			C7			R_Shoulder			L_Shoulder			R_Sternum			L_Sternum			R_humerus			R_elbow_med			R_elbow_lat			R_forearm			R_wrist_radius			R_wrist_ulna			L_humerus			L_elbow_med			L_elbow_lat			L_forearm			L_wrist_radius			L_wrist_ulna			R_HJC			L_HJC			R_HJC_reg			L_HJC_reg			
		X1	Y1	Z1	X2	Y2	Z2	X3	Y3	Z3	X4	Y4	Z4	X5	Y5	Z5	X6	Y6	Z6	X7	Y7	Z7	X8	Y8	Z8	X9	Y9	Z9	X10	Y10	Z10	X11	Y11	Z11	X12	Y12	Z12	X13	Y13	Z13	X14	Y14	Z14	X15	Y15	Z15	X16	Y16	Z16	X17	Y17	Z17	X18	Y18	Z18	X19	Y19	Z19	X20	Y20	Z20	X21	Y21	Z21	X22	Y22	Z22	X23	Y23	Z23	X24	Y24	Z24	X25	Y25	Z25	X26	Y26	Z26	X27	Y27	Z27	X28	Y28	Z28	X29	Y29	Z29	X30	Y30	Z30	X31	Y31	Z31	X32	Y32	Z32	X33	Y33	Z33	X34	Y34	Z34	X35	Y35	Z35	X36	Y36	Z36	X37	Y37	Z37	X38	Y38	Z38	X39	Y39	Z39	X40	Y40	Z40	X41	Y41	Z41	X42	Y42	Z42	X43	Y43	Z43	X44	Y44	Z44	X45	Y45	Z45	X46	Y46	Z46	X47	Y47	Z47	X48	Y48	Z48	X49	Y49	Z49	X50	Y50	Z50	X51	Y51	Z51	

132	1.31000000	1459.26809	491.15630	-80.03088	1504.16303	450.95502	-92.74953	1460.81673	90.73846	-112.11519	1404.11244	60.02632	-163.49325	1601.12187	34.39383	-73.80429	1630.63866	59.79985	-130.16398	1148.50082	457.06139	-375.85517	1120.15331	371.92321	-391.38200	873.62779	154.47439	-344.97148	798.44714	155.02080	-294.78205	946.58929	40.57043	-358.15401	991.16057	46.59356	-304.98177	1512.78130	337.41210	-105.86304	1441.77147	438.63632	-48.39526	1451.37951	323.23867	-48.26515	1057.96360	436.47023	-397.60628	976.41151	347.25383	-394.14071	1424.88772	789.89114	-145.29222	1474.68331	689.96908	-140.30151	1477.53683	669.88510	-75.11377	1384.11621	773.72374	-40.78324	1431.79117	671.04733	-40.64738	1290.03586	750.51642	-399.34817	1251.11169	615.79242	-401.58696	1181.21106	781.18169	-392.10189	1144.46738	649.94825	-370.37603	1378.85610	929.32305	-112.53149	1182.40729	962.32842	-177.85017	1364.58888	896.88840	-344.64516	1176.88327	954.57105	-275.38643	1235.70148	1417.12290	-187.01626	1286.83368	1353.11961	-26.72048	1315.24606	1385.29645	-349.53391	1344.15929	1315.51513	-174.98969	1349.86361	1317.60474	-213.28701	1268.02014	1106.82720	30.20153	1211.26065	1023.37314	-12.71103	1235.83979	1019.03186	42.87477	1294.90655	887.05582	51.71563	1333.87251	790.99765	32.38645	1297.78020	783.69192	57.29184	1330.22327	1168.82601	-461.87493	1288.53726	1055.09153	-440.00101	1314.91011	1069.41350	-491.12296	1418.43805	967.42092	-506.44005	1487.53500	884.32903	-486.22839	1460.54389	866.03585	-514.27788	1298.72166	847.53826	-132.44518	1275.39738	833.64164	-321.16405	1304.64690	851.67062	-134.70999	1295.91092	839.40891	-288.95120	
133	1.32000000	1470.01242	491.46447	-80.14800	1514.15215	450.14362	-93.08765	1462.01784	90.60741	-112.53829	1404.26288	60.18340	-163.30763	1601.13274	33.73942	-73.67134	1631.00939	58.56821	-130.45554	1164.76429	454.55510	-375.24465	1134.75088	370.37328	-391.15643	881.50869	160.92283	-345.62124	806.73563	165.13907	-295.57667	948.98263	42.66516	-358.37028	993.60011	46.67408	-305.18675	1519.65795	336.23692	-106.26207	1451.76721	439.34837	-48.33895	1458.47445	323.70664	-48.23213	1074.36371	436.78746	-396.99511	990.34328	350.20792	-394.10195	1437.36032	790.75928	-145.39267	1486.60976	690.63527	-140.34300	1489.84589	670.72979	-75.14130	1397.15299	775.09730	-40.58732	1444.22797	672.16687	-40.65020	1301.99615	749.34410	-398.01661	1264.92789	613.95252	-400.58133	1192.77125	778.65302	-390.35761	1158.03647	646.68580	-368.70389	1391.11230	930.88296	-112.48843	1194.10269	962.83823	-177.86099	1375.97883	897.00966	-343.59120	1188.23321	954.16187	-275.30561	1247.87720	1416.56703	-182.25677	1297.99673	1350.31128	-22.43854	1328.53810	1386.21429	-344.67729	1355.99419	1314.42744	-170.58566	1361.62137	1316.89896	-208.83064	1280.08893	1103.47722	31.99971	1223.99396	1020.15295	-11.80694	1248.33252	1015.50787	43.88141	1307.07470	883.47733	52.36676	1345.94708	787.46436	32.79332	1309.70809	780.08038	57.39868	1340.54956	1170.03554	-458.53061	1297.29520	1056.97499	-436.96642	1323.83782	1070.96271	-488.06510	1425.63910	967.29234	-503.91485	1493.30895	882.92008	-484.02936	1466.03046	865.25286	-512.22708	1310.90500	848.78310	-131.53184	1287.33367	833.38380	-320.11419	1316.97131	853.43430	-133.61046	1307.72105	839.75729	-287.20968	
134	1.33000000	1479.69429	491.44545	-80.23107	1523.21593	449.14811	-93.28601	1462.89384	90.62980	-112.88596	1404.31600	60.26385	-163.19892	1601.10180	33.35920	-73.59060	1631.25082	57.89256	-130.62584	1181.83555	452.13613	-374.82344	1150.24968	368.90284	-390.92468	890.47819	168.00934	-346.03601	816.43216	176.19089	-296.04789	951.71040	45.47875	-358.51129	996.41869	47.16649	-305.36557	1525.86778	334.97765	-106.55274	1460.71108	439.75106	-48.39836	1464.71776	323.92359	-48.30636	1091.65232	437.23678	-396.37797	1005.34310	353.20490	-393.94164	1449.64801	791.23515	-145.07073	1498.03576	690.71828	-139.97023	1501.19617	670.81841	-74.80092	1409.43009	775.95159	-40.22106	1455.58908	672.60549	-40.42074	1313.86943	748.56117	-396.81675	1279.00116	612.44487	-399.77682	1204.13579	776.29330	-388.51845	1171.84499	643.50082	-367.00830	1403.32155	932.32762	-112.57785	1205.75162	963.60170	-177.53831	1387.02487	897.49498	-342.80112	1199.39591	954.14692	-274.87245	1259.92324	1416.21876	-177.65878	1309.13961	1347.81534	-18.34379	1341.69038	1387.25400	-339.95840	1367.74656	1313.57088	-166.32507	1373.21699	1316.40398	-204.52864	1292.13169	1100.50159	33.76319	1236.68707	1017.28831	-10.88727	1260.79827	1012.35443	44.88019	1319.29365	880.29132	52.99094	1358.12815	784.35195	33.16761	1321.80738	776.86203	57.51443	1350.94135	1171.41690	-455.21157	1305.79142	1059.32270	-434.10642	1332.82859	1072.68104	-485.03043	1432.65380	967.19892	-501.39400	1498.72864	881.43308	-481.80436	1471.14655	864.46054	-510.18352	1323.00774	850.03537	-130.77681	1298.84398	833.54903	-319.19738	1329.14362	855.26611	-132.68140	1319.15586	840.39916	-285.68937	
135	1.34000000	1488.37911	491.17153	-80.27483	1531.37435	448.03760	-93.32064	1463.55737	90.77511	-113.16044	1404.33566	60.30521	-163.16763	1601.07377	33.09258	-73.59837	1631.43202	57.55100	-130.70691	1199.61864	449.88187	-374.59011	1166.49842	367.56477	-390.64104	900.60745	175.65988	-346.19338	827.62543	188.05919	-296.15802	954.85851	49.13018	-358.56156	999.67744	48.20059	-305.54331	1531.49437	333.71253	-106.68371	1468.59344	439.92123	-48.59092	1470.15796	323.96947	-48.46699	1109.73800	437.81845	-395.78887	1021.32297	356.24280	-393.65449	1461.60513	791.37959	-144.43651	1508.89645	690.32902	-139.30034	1511.62122	670.29787	-74.19898	1420.94786	776.37124	-39.72690	1465.96913	672.50670	-40.01960	1325.62278	748.17488	-395.76687	1293.25021	611.32947	-399.20141	1215.30366	774.18483	-386.59655	1185.84919	640.48648	-365.31223	1415.39448	933.59360	-112.79191	1217.32859	964.61056	-176.87532	1397.67774	898.30533	-342.26894	1210.35722	954.50192	-274.08168	1271.81514	1416.08711	-173.24276	1320.26135	1345.66834	-14.45555	1354.57585	1388.43230	-335.44920	1379.41997	1312.98866	-162.26740	1384.69985	1316.16883	-200.44502	1304.13341	1097.92918	35.49321	1249.29099	1014.81844	-9.94335	1273.19510	1009.60599	45.87509	1331.54707	877.53374	53.58841	1370.41230	781.69811	33.51048	1334.04601	774.08342	57.61836	1361.38881	1172.95471	-451.93936	1314.07177	1062.06527	-431.40389	1341.89673	1074.55636	-482.05779	1439.54253	967.17473	-498.90269	1503.83606	879.90965	-479.56096	1475.98093	863.71782	-508.17585	1334.95987	851.24560	-130.17748	1309.87142	834.10893	-318.41756	1341.07183	857.15468	-131.91439	1330.14145	841.29463	-284.37969	
136	1.35000000	1496.17527	490.73790	-80.26478	1538.68476	446.88901	-93.18015	1464.08845	90.97823	-113.39698	1404.36008	60.33957	-163.19533	1601.05917	32.84775	-73.69021	1631.59050	57.38024	-130.73004	1218.01282	447.88093	-374.53655	1183.31317	366.42942	-390.25581	911.92407	183.76727	-346.07641	840.34316	200.55186	-295.87536	958.55180	53.69445	-358.51487	1003.46582	49.88327	-305.74873	1536.58314	332.50279	-106.61487	1475.47176	439.96166	-48.89785	1474.85361	323.94710	-48.67794	1128.53388	438.52360	-395.26597	1038.15258	359.36006	-393.25551	1473.08105	791.30498	-143.65243	1519.15423	689.65121	-138.49477	1521.22739	669.39942	-73.47884	1431.76584	776.50987	-39.17437	1475.53495	672.08475	-39.53998	1337.23670	748.17995	-394.86825	1307.60493	610.64544	-398.84377	1226.30425	772.35573	-384.56948	1200.00414	637.71602	-363.65626	1427.23485	934.66772	-113.09314	1228.77709	965.83666	-175.92360	1407.92297	899.38971	-341.95445	1221.09946	955.18035	-272.98842	1283.54882	1416.18041	-169.02932	1331.37442	1343.90476	-10.79206	1367.08594	1389.76749	-331.21755	1391.01862	1312.71231	-158.47419	1396.11471	1316.22751	-196.64110	1316.08723	1095.78797	37.18826	1261.76750	1012.78168	-8.97193	1285.49998	1007.29663	46.87007	1343.82023	875.23878	54.15970	1382.79371	779.53900	33.82270	1346.37311	771.77692	57.70594	1371.85749	1174.62615	-448.73975	1322.25370	1065.05518	-428.82048	1351.02186	1076.57350	-479.17999	1446.36382	967.26190	-496.46431	1508.68275	878.40771	-477.31152	1480.63506	863.09645	-506.23826	1346.67921	852.39284	-129.71557	1320.40699	835.01111	-317.76627	1352.67033	859.08448	-131.28428	1340.65299	842.39577	-283.25722	
